/* XPM */
static char *_9547b86f97d46b0bd5b0ee2861a7a4aq4gcsfkF1SoXYitV[] = {
/* columns rows colors chars-per-pixel */
"64 64 212 2 ",
"   c black",
".  c #020202",
"X  c #040404",
"o  c #060606",
"O  c #070707",
"+  c #090909",
"@  c #0B0B0B",
"#  c gray5",
"$  c gray6",
"%  c #101010",
"&  c gray7",
"*  c gray8",
"=  c #161616",
"-  c gray9",
";  c #191919",
":  c #1B1B1B",
">  c gray11",
",  c #1E1E1E",
"<  c #202020",
"1  c #222222",
"2  c #232323",
"3  c #252525",
"4  c gray15",
"5  c #282828",
"6  c #2A2A2A",
"7  c gray17",
"8  c #2D2D2D",
"9  c gray18",
"0  c gray19",
"q  c #323232",
"w  c gray20",
"e  c #353535",
"r  c gray21",
"t  c gray22",
"y  c #393939",
"u  c gray23",
"i  c #3C3C3C",
"p  c #3E3E3E",
"a  c #3F3F3F",
"s  c #414141",
"d  c gray26",
"f  c #434343",
"g  c gray27",
"h  c #464646",
"j  c #484848",
"k  c #494949",
"l  c gray29",
"z  c #4C4C4C",
"x  c gray30",
"c  c #4E4E4E",
"v  c #505050",
"b  c #515151",
"n  c gray32",
"m  c gray33",
"M  c #555555",
"N  c #565656",
"B  c gray34",
"V  c gray35",
"C  c #5A5A5A",
"Z  c #5B5B5B",
"A  c gray36",
"S  c gray37",
"D  c #5F5F5F",
"F  c #606060",
"G  c gray38",
"H  c #626262",
"J  c gray39",
"K  c #656565",
"L  c gray40",
"P  c #676767",
"I  c #686868",
"U  c DimGray",
"Y  c #6A6A6A",
"T  c gray42",
"R  c #6C6C6C",
"E  c #6D6D6D",
"W  c gray43",
"Q  c #6F6F6F",
"!  c gray44",
"~  c #717171",
"^  c #727272",
"/  c gray45",
"(  c #747474",
")  c gray46",
"_  c #767676",
"`  c #777777",
"'  c gray47",
"]  c #797979",
"[  c gray48",
"{  c #7B7B7B",
"}  c #7C7C7C",
"|  c gray49",
" . c #7E7E7E",
".. c gray50",
"X. c #808080",
"o. c #818181",
"O. c gray51",
"+. c #838383",
"@. c #848484",
"#. c gray52",
"$. c #868686",
"%. c gray53",
"&. c #888888",
"*. c #898989",
"=. c gray54",
"-. c #8B8B8B",
";. c gray55",
":. c #8D8D8D",
">. c #8E8E8E",
",. c gray56",
"<. c #909090",
"1. c gray57",
"2. c #929292",
"3. c #939393",
"4. c gray58",
"5. c #959595",
"6. c gray59",
"7. c #979797",
"8. c #989898",
"9. c gray60",
"0. c #9A9A9A",
"q. c #9B9B9B",
"w. c gray61",
"e. c #9D9D9D",
"r. c gray62",
"t. c #9F9F9F",
"y. c #A0A0A0",
"u. c gray63",
"i. c #A2A2A2",
"p. c gray64",
"a. c #A4A4A4",
"s. c #A5A5A5",
"d. c gray65",
"f. c #A7A7A7",
"g. c gray66",
"h. c #A9A9A9",
"j. c #AAAAAA",
"k. c gray67",
"l. c #ACACAC",
"z. c gray68",
"x. c #AEAEAE",
"c. c #AFAFAF",
"v. c gray69",
"b. c #B1B1B1",
"n. c #B2B2B2",
"m. c gray70",
"M. c #B4B4B4",
"N. c gray71",
"B. c #B6B6B6",
"V. c #B7B7B7",
"C. c gray72",
"Z. c #B9B9B9",
"A. c gray73",
"S. c #BBBBBB",
"D. c #BCBCBC",
"F. c gray74",
"G. c gray",
"H. c gray75",
"J. c #C0C0C0",
"K. c #C1C1C1",
"L. c gray76",
"P. c #C3C3C3",
"I. c gray77",
"U. c #C5C5C5",
"Y. c #C6C6C6",
"T. c gray78",
"R. c #C8C8C8",
"E. c gray79",
"W. c #CACACA",
"Q. c #CBCBCB",
"!. c gray80",
"~. c #CDCDCD",
"^. c #CECECE",
"/. c gray81",
"(. c #D0D0D0",
"). c gray82",
"_. c #D2D2D2",
"`. c LightGray",
"'. c gray83",
"]. c #D5D5D5",
"[. c gray84",
"{. c #D7D7D7",
"}. c #D8D8D8",
"|. c gray85",
" X c #DADADA",
".X c gray86",
"XX c gainsboro",
"oX c #DDDDDD",
"OX c gray87",
"+X c #DFDFDF",
"@X c gray88",
"#X c #E1E1E1",
"$X c #E2E2E2",
"%X c gray89",
"&X c #E4E4E4",
"*X c gray90",
"=X c #E6E6E6",
"-X c #E7E7E7",
";X c gray91",
":X c #E9E9E9",
">X c #EAEAEA",
",X c gray92",
"<X c #ECECEC",
"1X c gray93",
"2X c #EEEEEE",
"3X c #EFEFEF",
"4X c gray94",
"5X c #F1F1F1",
"6X c gray95",
"7X c #F3F3F3",
"8X c #F4F4F4",
"9X c gray96",
/* pixels */
"9X9X7X9X9X9X9X9X<X).7X-Xn.a.].9X9X9X9X9X7X9X9X9X9X;X9X9X9X!.-X9X9X9X].!.7XOXp.T.9X9X9X9X9X9X9X9X9X9X9X9X<X9X9X9X-X).$X9X7X9X9Xc.",
"9X<X].9X9X9X9X9X).J.<XS.X.9X9X9X9X9X9X9X<X9X9X9X<X9X9X9X<X9X9X9X9X9X9X9X9Xr.$ 9X9X9X9X9X9X7X9X9X9X9X9X;X<X7X9X9X9X9X9X9X9X9X9X1.",
"1.{  .g.B.6.p.R > B @.    9X9Xr.{ X.1.P ! n.a.F ! p.p.X.C X.T.T.q.6.p.6.S.:   9X9Xa.1.r.X.P a.!.S.D.R.q.=.r.B.c.{ p.$X$XJ.n.q.  ",
"q.p.J.!.c.q.B.{ k g.S.    9X9XR P ,.S.p.B. Xc.X.n.T.r.X.{ c. X!.a.r.,.=.p.    9X9XB : X.q.@.D.).a. .S ( =.p.D.=.c =.!.B.p.S. .  ",
"6.q.r.T f ,.J.@.=.-XD.  k 9X9X,.r.D.!.n.S.S.6.=.c.n.=.C f ,.D.g.,.@. .6.1.    9X9Xk 5 X.@.( q.n.q.S c 1.a.r.,.k b 1.r.X.q.g.{   ",
"@.=.,.u f R.R.,.1.B.T     9X9Xn.p.q.r.6.=.@.R 0 F 6.S + f q.a.{ C p B 1.1.    9X9XF p S { =.r.q.C c 1.a.F C S B =.p.,.a.a. .(   ",
"          b               ).B.        + X       * c     0 e X                 ].n.      h 8         *     < $     3 k c 3       ",
"                        e c.P         > +       p             <               p.!     % e                 b       5 <     *     ",
"g.J.-X9X7XR.9X9X9X9XOX9X9X9X9X9X9X9X9X9X9X).OX9Xn.e ,.<X$X;X9X9X<X<X9X9X9X9X9X9X9X9X9X9X9X9X9X9X9X9X Xc.T.9X<X X9X9X9X$X9X9XOX-X",
"9X9X9X9X9X9X9X9X9X9X9X9X9X<X9X9X9X9X9X9X9X9X9X9X=.5 9X9X9X9X9X9X9X9X9X9X9X9X9X9X9X9X9X9X9X9X9X9X9X9XT.r.9X9X9X9X9X9X9X7X9X9X9X9X",
"9X9XJ.a.B.T.S.R. XOXn.6.C T ].].g.,.{ @.r.q.1.@.    9X9Xc.6.c.! R g.{ < ! S.1.=.p.q.,. .p.].D.q.X.B   % 9X9X6.T f p.1.F =.r.B.T.",
"9X9X1.p.R.S.q.a.g.g.p.1.R r.$X).c.1.=.r.q.( X.S     9X9X=.q.c. .g.J.5 $ g.).q.6.a.q.,.,.6.@. .,. .8   f 9X9Xc.X.X.7XR.( ,.r.g.g.",
"9X9X! ,.D.c.X.! R  .,. .P q.D.g.1.@.1.a.X.P 6.=.    9X9X1.T P X.!.T. .B.<X!.! k ! R c P R f { c.=.{ X > 9X9Xc.,.n.<XT.X.p.].).p.",
"9X9XC P ,.X.P R X.@.,.,.q.S.g.F : f { X.P ,.T.r.    9X9X1.C B T ,.,.p.R.OXq.: 8 { P 0 T { F B.].6.=.     X;X! X.q.B.g.{ X.B.c.,.",
"$X!.                > :             5               $X].e         :           f C     5 e   c k         7XD.X $ : $         % : ",
"9X1.                              u 5               ,. .5       + %           h *                     : ;X{                 5   ",
"9XD.g.-X9X9X<X<X9X9X9XD.X.-X9X9X9X9X9XB.;X9X<X7X9X9X9X9X;Xa.R.9X9X9X].$X9Xr.T 7X9X7X9X9X9X<X9XOX X-X X9X9X<XS.<X9X!.].9X9X9X9X .",
"9X7X9X9X9X9X9X9X9X9X9XD.6.9X9X9X9X9X9X9X9X9X9X9X9X9X9X9X9X9X9X9X9X9X9X9X9XB.@.9X9X9X9X9X9X9X9X7X9X9X9X9X9X9X9X9X9X9X9X9X9X9X9Xa.",
").J.OXD.6.n.OX X=.0 F     ).S.T a.a.B.g.J.g.c ! S.c.S.J.).-XT.6.@.g.D.n.,.    9X9XD.=.8 p { P T.;Xn.T.).T.D.B.T.q.@.D.T.a.T @.k ",
"g.F P @.@.6.B.p.{ R  .    9X9Xg.R.q.,.{ !  .k k =.B.r.C R q.,.( P @.p.@.p     9X9XJ.=.S 6.OXT.T.q.R ( ,.r.,.,.C 0 @.r.6.X.C 6.S ",
"R > F a.r.6.a.r.1.1. .  $ 9X9XB.!.c.q.@.=.g.1.a. X7XS.b ! q.@.{ F R ,.S u   % 9X9Xg.1.X.X.p.a.P f ! R 1.a.X.@.c F B.,.P R ! p.3 ",
"b > ,.g. .! R  .1.,.(     ;X9XB.r.{ T T X.n.B.B.S.S.=.< F a.=.R B R B.,.1.f   9X9Xp.X.C : R a.h S D.S.).D.,.q.S b =.R S 1.=.@.  ",
"    k +         + : %     7X-XP :         < 8       X     h     + c ( h c     9X<X5       F X.3 F ,.S e             + : S f :   ",
"                        + B.c         +                         3             -XX.          0 < 5                   : 5 +       ",
"n.9X7X X9X9X7X).OX9X$Xp.S.OX].<X<Xn.R.9X7X7X-XS.! b R. Xq.).;X9X9X9X$X9X9X$X9X9X9XOXB.q.a.9X9X7XOXB.S % { S.$X7X7X9X9X9X9X<X-X7X",
"9X9X9X9X9X9X9X9X9X9X9X9X X<X9X9X9X9X9X9X9X9X9X$Xr.p.9X9X9X9X9X9X9X9X9X9X9X9X9X9X9X9X;X7X9X9X9X7X<X9XX.c 7X9X9X9X9X9X9X9X$X9X9X9X",
"9X9Xr.-X-XS.p.J.$X XD.g.! a.9X].n.-X7X Xn.1.P S < e 9X9X].c.a.=.B.R.a.,.{ X.q.S.a.X. .D.-XR.( 3 X.B.    9X9Xr.R.p.,.g.! 8 ! r.6.",
"9X9XJ.].S.1.1.1.=.1.r.q.X.S.9XD.X.=.X.@.1.! S =.    9X9Xa.F 1.r.n.n.r.,.( 6.T.J.1.R 1.1.k C F T ). X    9X9XS.<Xg. .6.( =.].;Xn.",
"9X9Xp.R  .1.1.,.1.6.@.{ =.D. Xq.T ! (  .{ 0 h p.    9X9Xq.{ 6.c.1.1.B.g.=.a.T.D.1.@.p. .p a.R.J.;XR.    9X9XB.!.6.,.r.@.r.B.D.=.",
"9X9X(   R ,.{ X.6.1.! R r.n.q.! ! ,.=.=.( c @.R.X + 9X9XR C F X.R P q.=.R 1.g.p.=.1.c.1.r.<X<XS.=.(     9X9X=.r.T { { =.n.X.{ T ",
"-X<X    5 $     *     > b e       > % 3 *   e !     c. .      0 8   p     h b 5 > f 0 $ f { ! 3         9X7XF 5       8 F     % ",
"@.f                                           X     b +                                                 -Xc.      $             ",
"9X9X<X<X$X<X<X].T.T.D.! < ,.<X9X;X;X!.D.).-X9X9X-Xc.<X XB.7X<Xn.c.$Xg.@.;X Xc.T.).R.{ R  X<XT.=.! p. X9X9X;X .@.S.-X).S.OXD.q.=.",
"9X9X9X9X9X9X9X9X7X9X9X;X!.9X9X9X9X9X9X9X9X9X9X9X7X).9X9X9X9X9X9X9X9X9X9X9X9XB.7X9X;X X9X9X9X9X9X;X9X9X9X9X9X9X9X9X9X9X9X7X9X9X).",
"r.,.( D.<X!.B.OX].R.T.* % 9X9XD.n.a.J.S. .@.a.@.T h ! J.OXOXJ. X-XD.q.S.!.    !.-Xp.,.,.].;XJ.=.=. X9X XD.].].p. X9X9XD.q. .,.% ",
"r.r.c.-XOX6.( p.p.T k     9X9X,.1.{ =.X.b  .X.T 1.R T B.T.g.S.T.@.S F q.R.    <X9XJ.6.=.D.J.6.X.p.c.p.q.=.1.6.6.D.].c.6. .R {   ",
"6.r.a.T.c.@.X.g.,.  :   S 9X9X1.6.,.a.c.q.B.=.X.D. .a.9X).,.c.r.5 * @. XOX    9X9XD.p.c.!.S.q.=.! f b !  .r.q.1.q.q.1.,.T h T   ",
"=.r.B.S.r.,.1.r. .F B.R   ;X9Xp.,.X.1.q.r.c.p.!.OX( 6.$XB.r.R.=.> P !.T.B     9X9Xn.( T { X.P < 5 B ! X.a.n. .P ( @.,.,.! P  .* ",
"  5 P P B B B >     T     B.R.u     k B 5 h B ! S     S B C ! e : { 1.$       9X9XB       X     k @. .,.B.{       3 f c 0 5 b $ ",
"                          n.P       5                                     : P B.@.        $     e %                             ",
"R ].!.R.).T.p.1.q.!.9XT.p.<XD.,.$X9XD.e 5 ).n.{ =.T { n.R.$X). .{ p.=.c.-XOX].$X].=.@. X9X9XD.D.7XD.:   F 1.1.J.7X-X).J.1.c ( R.",
"9X9X9X9X9X9X9X7X9X9X9X9X9X9X9X9X9X9X Xn.9X9X9X9XOX1.7X9X9X9X9X-X7X9X9X7X9X9X9X9X9X9X9X9X9X9X9X9X9X9X6.P 9X9X9X9X9X7X9X9X9X<X9X9X",
"7X9Xg.). Xn.=.b =.J.S.6.g.;X9X9X9X Xr.].9X9Xr. .X + 7X9XD.=.q.R.OXOX7X;XT.OX;XS.D.D.a.R.S.B.]. X!.D.    9X9X9X).c.p.n.!.B.r.).9X",
"].9XD.-X).r.S < X.p.X.T { n.D.S.n.1.@.S. Xc.,.{     9X9XR.n.R.$X].B.B.g.,.q.p.r.,.P S ,.1.c.S.r.=.T     9X9XB.,.,.=.6.=.T ( a.J.",
"T.9X$X Xc.{ u P B.g.r.a.S.).S.1.1.=.T F X.1.6.=.    9X9Xc.,.a.S.a. .X.X.F b @.c.=.X.J.S.@.g.B.q.C     3 9X9X{ =.1.,.1.@.{ a.J.B.",
"].9X Xr.X.{ { r.q.=.J.R.c.g.r.1.6.X.C h =.n.q.{     9X9X,.B  .1.X.R (  . .1.S.D.,.1.J.p.a.$XJ.X.b u   S 7X!. .{ h R q.g.n.T.D.r.",
"7X9X@.B u 5 f p % h ! 5 5 B p p u     8 a.g.F >     9X9Xh + f b 5 0 > 5 !  .( e     0 e { r.c   c @.5 p !.B.@.u   C ! C B b p 5 ",
"n. .                                    0           n.P                             >             *     S e %                   ",
"<X Xq.T F ,.( p  .6.@.{ ,.X.R 1.p.X.@.!.c.c     f c.9XB.F F R.OX1.q.( ,.B.3   X a.9X9XT.g.{ C p.$XS.f ! ].-X].,.R ,.( ! =.T  .6.",
"9X9X9X<X9X9X).-X9X9X9X9X).9X9X9X9X9X9X9X9X9X9X9X9X9X9X9X9X9X9X9X9X9X9X9X9Xp.=.9X9X9X9X9X9X9X9X7X9X9X-X9X9X9X9X7X9X9X9X9X9X9X9X9X",
"r.S.-X$X7XJ.q.).9X-XB.e 3 9X9XX.!. Xg.).-X X].R.].9X9X9X;X-X XS. .P c.T.B.S S 9X9X<Xc.c.B.1.6.-X!.=.,.S.<X;Xa.@.J.7X].r.q.).;XR ",
"g.c. Xn.,.1.B.T.c.( X     9X9X,. XT.! @.c.c.@.c p.7X).c.6.q.q.=.! T 1.B.R.k k 9X9X{ P @.q.{ ,.!.X.C 6.B.).c.{ { g.!.a.R 1.!.1.  ",
"J.@.@.C c 6.q.F P T R 8 ! 9X9Xg.S.q.{ q.T.g.{ @. X-X=.R ( { =.6.a.r.n.OXT.    9X9X .! ,.p. .! X.{ B.-X].D.p.1.r.!.-Xg.C R g.g.< ",
"r.e 8 R  .=.( p T =.c.S h 9X-XC R ! ,.n.B.X.{ 1.=.=.X.@.@.( q.a.r.1.n.T.X.    ].9X1.! r.R.6.{ 1.S.$X).g.q.r.=. .c.S.R > c q.D.3 ",
"B   5 X.b B =.@.q.n.B.    c.,.f ! b T X.( F 1.X.> 0 b 0 c { q.@.C C {  .c     !.7X,.T q.p.F e X.B.c.F   5 h e S 1.( % p =.n.r.  ",
"            5             6. .3 8           3                                 X.P               $                               ",
"  T  .R D.B.6.{ 5 ( 6.c  .9X7Xn.T.p.h T  .! ( P 3 : b ,.c.@.R k * * P b R B.B.S.g.1.=.f     B ].n.T     P r.{ ( c   F ,.S > 8 c ",
"9X9X9X9X9X9X9X9X9X9X9X-X9X9X9X9X9X9X9X9X9X9X9X$X .F ;X9X9X9X9X9X9X9X9X9X9X9X9X9X9X9X9X9X!.<X9X9X9X7Xc.@.9X9X9X9X9X9X9X9X9X9X9X9X",
"9X9X).].9X!.=.$X9X;XR.J.9X7XOXOX9X<X).;X9X9Xn.p     9X9X9X;Xc.@.J.9X9X7XOXJ.B.S.-X9X<X).!.<X9X9XOX].c   9X9X).9X9X9X9X$X].].9X9X",
"7X9Xa.6.;XS.{ ).].=.S 1.).c.r.a.g.r.,.1.p.X.*     * 9X9Xg.,.k e a.7X Xc.(  .=.r.J.S.,.@.a.!.$X$XJ.@.    J.9XR. X).D.=.f p  .n.n.",
"D.9X{ =.-X).c.$X!.( u X.c.p.g.X. .X.! X.,.e    .C ! 9X7X,.=.P r.<X9Xn.T P { =.a.p.{ R @.1.,.p.T.n.f     9X9XOXn.a.p.b   : ,.=. .",
"S.9X .@.D.T.a.c. .f ! R.].p.T * R 1.=.a.p.b { <X@.S 9X9X Xg.=.$X9XOX=.P @.=.r.B.P c 6.c.1. .,.6.1.h     9X9Xr.R X.1.h + r.7XB.6.",
").<Xa.6.,.X.b 5     T a.r.B     P @.! { C $ b 6.    D.9XR.@.@.S.1.X.C b 1.1.X.B   S ,.f 8 e e F !     b 9X9X3 5 b T * $ n.-X1.F ",
"B.g.{ p : <                                          . .                          X           <       $ r.                      "
};
