/* XPM */
static char *_aeb580e05a7461add4e7911359d3b51jDtlfvDD3GPj50oO[] = {
/* columns rows colors chars-per-pixel */
"64 64 229 2 ",
"   c #0C0701",
".  c #180E01",
"X  c #1C1101",
"o  c #201301",
"O  c #241501",
"+  c #251601",
"@  c #271701",
"#  c #291801",
"$  c #2B1901",
"%  c #2D1B01",
"&  c #2F1C01",
"*  c #311D01",
"=  c #331E01",
"-  c #351F01",
";  c #372001",
":  c #392201",
">  c #3B2301",
",  c #3D2401",
"<  c #3F2501",
"1  c #412601",
"2  c #432701",
"3  c #452801",
"4  c #472A01",
"5  c #492B02",
"6  c #4B2C02",
"7  c #4D2E02",
"8  c #4F2F02",
"9  c #513002",
"0  c #533102",
"q  c #553202",
"w  c #573302",
"e  c #593402",
"r  c #5B3602",
"t  c #5D3702",
"y  c #5F3802",
"u  c #613902",
"i  c #633A02",
"p  c #653B02",
"a  c #673D02",
"s  c #693E02",
"d  c #6B3F02",
"f  c #6C4002",
"g  c #6E4102",
"h  c #704202",
"j  c #724302",
"k  c #744402",
"l  c #764502",
"z  c #784602",
"x  c #7A4802",
"c  c #7C4902",
"v  c #7E4A02",
"b  c #804B02",
"n  c #824C02",
"m  c #844D02",
"M  c #864F02",
"N  c #885002",
"B  c #8A5102",
"V  c #8C5202",
"C  c #8E5302",
"Z  c #905503",
"A  c #925603",
"S  c #945703",
"D  c #965803",
"F  c #985903",
"G  c #9A5B03",
"H  c #9C5C03",
"J  c #9E5D03",
"K  c #A05E03",
"L  c #A25F03",
"P  c #A46003",
"I  c #A66203",
"U  c #A86303",
"Y  c #AA6403",
"T  c #AC6503",
"R  c #AE6603",
"E  c #B06703",
"W  c #B26903",
"Q  c #B36903",
"!  c #B56A03",
"~  c #B76B03",
"^  c #B96D03",
"/  c #BB6E03",
"(  c #BD6F03",
")  c #BF7003",
"_  c #C17103",
"`  c #C37203",
"'  c #C57403",
"]  c #C77503",
"[  c #C97603",
"{  c #CB7703",
"}  c #CD7803",
"|  c #CF7903",
" . c #D17B03",
".. c #D37C03",
"X. c #D57D03",
"o. c #D77E04",
"O. c #D98004",
"+. c #DB8104",
"@. c #DD8204",
"#. c #DF8304",
"$. c #E18404",
"%. c #E38504",
"&. c #E58704",
"*. c #E78804",
"=. c #E98904",
"-. c #EB8A04",
";. c #ED8B04",
":. c #EF8C04",
">. c #F18E04",
",. c #F38F04",
"<. c #F59004",
"1. c #F79104",
"2. c #F99204",
"3. c #FB9304",
"4. c #FC9405",
"5. c #FC9507",
"6. c #FC9609",
"7. c #FC970B",
"8. c #FC980D",
"9. c #FC990F",
"0. c #FC9911",
"q. c #FC9A13",
"w. c #FC9B15",
"e. c #FC9C17",
"r. c #FC9D19",
"t. c #FC9E1B",
"y. c #FC9E1D",
"u. c #FC9F1F",
"i. c #FCA021",
"p. c #FCA123",
"a. c #FCA225",
"s. c #FCA327",
"d. c #FCA329",
"f. c #FCA42A",
"g. c #FCA52C",
"h. c #FCA62E",
"j. c #FCA630",
"k. c #FCA732",
"l. c #FCA834",
"z. c #FCA936",
"x. c #FCAA38",
"c. c #FCAB3A",
"v. c #FCAB3C",
"b. c #FCAC3E",
"n. c #FCAD40",
"m. c #FCAE42",
"M. c #FCAF44",
"N. c #FCB046",
"B. c #FCB048",
"V. c #FCB14A",
"C. c #FCB24C",
"Z. c #FDB44E",
"A. c #FDB450",
"S. c #FDB552",
"D. c #FDB654",
"F. c #FDB756",
"G. c #FDB858",
"H. c #FDB95A",
"J. c #FDB95C",
"K. c #FDBA5E",
"L. c #FDBB60",
"P. c #FDBC62",
"I. c #FDBD64",
"U. c #FDBE66",
"Y. c #FDBE68",
"T. c #FDBF6A",
"R. c #FDC06C",
"E. c #FDC16E",
"W. c #FDC270",
"Q. c #FDC271",
"!. c #FDC373",
"~. c #FDC475",
"^. c #FDC577",
"/. c #FDC679",
"(. c #FDC67B",
"). c #FDC77D",
"_. c #FDC87F",
"`. c #FDC981",
"'. c #FDCA83",
"]. c #FDCB85",
"[. c #FDCB87",
"{. c #FDCC89",
"}. c #FDCD8B",
"|. c #FDCE8D",
" X c #FDCF8F",
".X c #FDD091",
"XX c #FDD193",
"oX c #FED295",
"OX c #FED397",
"+X c #FED499",
"@X c #FED49B",
"#X c #FED59D",
"$X c #FED69F",
"%X c #FED7A1",
"&X c #FED8A3",
"*X c #FED9A5",
"=X c #FED9A7",
"-X c #FEDAA9",
";X c #FEDBAB",
":X c #FEDCAD",
">X c #FEDDAF",
",X c #FEDEB1",
"<X c #FEDFB3",
"1X c #FEDFB5",
"2X c #FEE0B7",
"3X c #FEE1B8",
"4X c #FEE1BA",
"5X c #FEE2BC",
"6X c #FEE3BE",
"7X c #FEE4C0",
"8X c #FEE5C2",
"9X c #FEE6C4",
"0X c #FEE7C6",
"qX c #FEE7C8",
"wX c #FEE8CA",
"eX c #FEE9CC",
"rX c #FEEACE",
"tX c #FEEBD0",
"yX c #FEECD2",
"uX c #FEECD4",
"iX c #FEEED8",
"pX c #FEEFDA",
"aX c #FFF0DC",
"sX c #FFF1DE",
"dX c #FFF2E0",
"fX c #FFF3E2",
"gX c #FFF8EE",
"hX c #FFFAF2",
"jX c white",
/* pixels */
"&X`.K.T.(.OX=X}.S.l.G.S.i.e.c.U.K.!.&X].G.}.3X=XL.Z.&X>XU.z.C.(.+X(.b.j.K.N.0.j.E.!.}.2X X`..X(.R. X>XR.D.(.P.K.C.c.C.K.L._.}.r.",
"[.D.b.U..X&X=X(.c.f.G.s.-.`.iX>X[.}.@X^.F./. XE.F.(.&X`.D.U.#X:X}.L.T.T.(.9.I (.dX-X6X5X_.G.E.[.!._..XS.H.#X#X@XR.U.`..X.XoX[.3.",
"3.*.-.e.i.6.q.+.R } >.J G [..X8.-.>.3...#.u.q...$.0.8.:. .:.h.h.9.3.w.6.a.R N &X1Xw.5.6.:.X.e.z.u.f.h.6.<.0.a.r.*.9.C.C.f.u.7.N ",
"8.q.f.l.u.6.i.&._ r.s.F A `.^.@.X.1.f.0.i.b.r.:.u.h.9.;.-.r.b.j.0.9.3.1.e.B B #XOX{ R ;.7.>.f.z.e.=...$.<.0.f.1.' 1.k.i.0.a.-.t ",
"5.6.8.+._ 3.d.;.1.S.s.D _ -X`.3.0.f.k.i.a.i.5.1.r.i.,.} _ 3.f.w.2.1.=.5.3.f k }.[._ ~ :.>.$.6.u.6...' 3.w.9.3.' [ 3.7.:.7.r.&.i ",
">.1.3.^ _ j.l.1.3.u.+.a J }.XXu.0.6.7.6.2.,.@.! X.5. .I _ 7.w.*.} ) [ 3.3.a v  X_. .( ..-.,.0.6...' 3.0.X.} ..} 1.0.1.e.q.-.#.S ",
"A v j j J [ J j B J f . a c.i.V f f B I P n y r Y [ k c / / P F n k n F V . q c.u.n y C _ ~ L j 3 k Y N j R U v B W ' ' R J K i ",
"n q 3 z z 7 8 7 V J r q ^ u.o.a 2 9 M R P i 1 n ^ J f D F a B R B n v B z > N q.#.j t I ~ B v r r k N n C { J q f W R g F T J j ",
"r.f.C.|.F.k.K.K.`.E.m.^.#X@XOX_.!.|.>X-X^.z.N.E.u.^ 3.F.N.S..X[.D.F.R.[..X`.#X0X2XOX|.@XT.L.@X#X|.!.v.u.h.R.F.b.^.&XE.N.`.L.N.Z.",
"|.6X&X;X}. X&X@X#X@X}.#X(.F.OX<X-X>X=XoX(.R.(.`.<.W {.uX_._.@X_.U._.oX|. X=X-X-X<X>X-X}.(.-XrX6X=X_.h.9.`.2X(.!.[.#X!.G.^.R.!.|.",
"@X>Xf.q.i.h.s.j.b.m.i.5. .+.c.b.r.3.$.,.7.8.5.,.j S 6XwXr.6.u.$.@.e.*.R $.i.5.,.q.8.3.;.w.b.d.6.:.} n Y _.E.6.+._ 0.3.| <.9.i.h.",
"`.`.5.8.j.s.8.e.r.r.q.3.@.8.C.l.t.3.<.0.6.$.:.} 7 N @X}.1.8.r.=.w.f.W U r.l.6.6.w.6.2.2.5.>.-.2.=.W k _ [.E.r.:.:.H.z.&.3.9.e.e.",
"@XE.$.1.a.r.>.@.$.=.2.=.+.7.d.u.3.<.3.w.-.O.6.1.f n ^.|.5.O.X.:.k.h.:.i.G.k.@._ $.@.' X.@._ -.u.2.&.L R U.!.r.1.u.D.h.:.0.b.z.0.",
"T.K.} o.2.;.o.+.;.,.2.2.6.a.w. .T ) *.-.+.3.h.8.y i _.&X5.} } O.1.2.8.k.N.6.R ~ &.X.~ X.&. .i.c.5.1.k r m.S.#.-.6.i.r.*.-.i.r.3.",
"N.z.V j F B v V D G R R A B M s y F ! n a C G k   7 N.b.^ J z N P Y A f M s a _  .J A W ( S [ ' M k   q G.f.P I R I B a a B U T ",
"L.3.q 1 f f a r r k B p - - a c c / W r 3 t 3 8 3 v 3.-.W i @ f P I y $ 7 < i _ U k z J H t V j , 7 $ R S.*.k a j 9 % 7 9 j W v ",
"@Xf.e.V.L.E.F.S._..X[.f.:.C.@X[.K.^.L.a.Z.`.F.K./.R.!.^.S.e.k.{.[.T.v.N.R.8.@.G.(.G.`.#X(.D.!.C.v.C.m.@X:XD.s.D.^.l.c.[.E.T.(.-.",
"[.K.=X3X&X>X2XwX0X|.[.a.3.<X0X}.`.OX@X_.8XaX). X0XoXoX=X.X.X<X6X+X.X X&X&Xu.,.>XuXOX-X.X~.^.U.(.1X%X-X8X-X}.(.0X8X(.&XrX1XOXOXw.",
"z.f.b.s.5.r.b.N.1.~ X.k y c.a.+.e.0.i.e.f.e.' $.i.u.a.h.z.C.h.3.,.w.d.u.2.n L }.%Xd.1.W ^ -.+.j.Z.u.j.c.j.d.i.h.5.,.a.h.e.O.:.' ",
"e.X.X.>.1.5.i.q.&.@.=.c c (.U.e.k.6.3.*.#.=._ ' 1.i.9.} #.6.1.*.X.:.0.,._ 7 z [.<Xh.1. .6.N.h.h.6.@.$.3.8.2.1. .~ ,.0.2.:.} 6.} ",
"O.Y X.q.9.6.e.9.5.2.;.V U ^.U.i.l.r.9.:.<.r.3.0.n.G.f.[ #.6.<.&.X.@.2...( V Y #X&Xr.5.=.:.9.w.o.) #.O.3.q.;.;.' } u.3.X.#.$.9.W ",
"[ R 2.e.*.#.$.=.5.3.$.B F S.L.i.8.*.O.+.:.t.a.u.a.i.1.W ..w.<.@.[ @.i.2.5._ J #X%X8.;.{ Y #.e.)  .f.s.c.d.1.6. .' 1.+...2.<.:.n ",
"s k ' L n M v A I Y I i J K.V.o.R C C H D E ! B c B P v G ' V v I ' $._ [ f i E.D.~ B k C ..-.W ..1.} / K V K j i D I Y ..) R t ",
"$ s V t a s q t a B B r U i.' z S n C P N n g 8 7 f J A n v 8 i R J j f v q J C.;.f e s j C ! E W B 8 , = = 9 1 7 n Y ~ I v 9 3 ",
"u.!.K.b.E.`.K.c.M.E.V.q.s.m.b.S.G.t.k.L.G.K.S.s.$.{ j.b.7.c.S.L.#XE.V.U.K.V.^.=XT.n.i.7.w.L. XK.m.i.} Y *.i.C.D.K.).=X XK.G.C.K.",
"#XsX`.=XiXsX<X=XrXrXOXT.b.S.=X1X X[.;X2X.X}.E.V.8.q.oX>X^.2X2X.X<X-X=X<X#X[.[. X|.`.S.G.=XsX2XG.F.E.:.' #XrX=X<X%X>XwX.XC.L.`.@X",
"!.(.8.C.C.f.q.d.V.v.d.w.$.q.U.c.u.C.G.n.u.5.O...R ^ R.oXb.r.e.1.u.l.w.2.=.:.8.i.w.-.-.f.Z.k.$.W -.i.v j  X/.0.z.0.1.e.#.~ $.9.3.",
"_.OXh.b.i.5.3.3.1.5.8.6.:.s.L.f.:.<.:.<.3.$.} 1.J N ^.2X0...3.8.r.i.8.2.*.8.j.f.3.@.3.3.' } o.o.l.N.f 9 R.E.i.S.r.*.3.$.,.b.S.i.",
"U.%X0.@.-.3.5.3.3.6.>.*.1.f.b.6.O.#.$.*.*.! _ 8.D J 3X1X6.-.6.r.3.3.a.r.<.q.f.a.2.,.0.-.) 0.z.f.S.k.y 8 (.`.i.c.7.3.7.:.9.i.a.<.",
"L.-X$.J +.3.$.>.6.3.@.+.9.u.6.$.$.1.1.<.$.' :.k.P I =X(.@.} } :.@...6.<.O.3.r.0.1.4.r.3.9.D.S.i.1.$.9 t .X!.1.0.+.*.*.3.u.;.&.+.",
"C.G.M j W I M F U F F E [ ^ A v F R U W Y J ^ #.f r e.-.c S J ! W H ) H C ' { ! R ( ~ I _ =.@.W k B > r (.K. .W N J G ! ..D S Y ",
"<.( 5 f v c k f q ; > 3 7 < 1 9 f N N v f w f P r 1 ' I q v A F N C H 8 y v B V A F q & i M n r $ 8 < k S.r.s 7 k I N f f 3 2 y ",
"}.!.D.F.N.S.S.c.h.h.a.@.R <.F.K.Z.Z.l.d.c.V.U.}.V.u.D.m.i.G.D.u.u.N.e.<.Z.c.r.h.z.j.*.+.b.G.h.3.@.0.n.^.&XZ.=.>.s.Z.c.s.m.d.6.,.",
"-X=X[.`.=X=X&X>X>X5X3XZ.z.sXjX8X#X X XOX%X>X5X<XE.l.K.|.&X8X@X^.@X@XU..XyXU.u.^.(.D.n.U.6X0X|.L.S..XsXiX>XOX.XL.^.3X1XOX#X(.U.c.",
"9.1.*.f.F.k.i.N.v.j.h.Y Y OX&Xs.u.w.f.s.-.>.w.>.+._ $.f.N.n.f.n.Z.a.7.a.z.J j z.C.0.3.3.b.C.f.1.1.n.L.n.s.c.b.q.b.|.U.d.6.-.3.U ",
"9.9.r.V.N.5.$.9.0.+._ 9 p ^.`.3.2.=.>.:.[ -.-.+.3.@.+.i.h.r.a.h.<.....6.k.B y F._.h.6.>.d.f.3.:.0.r.0.9.1.4.5.5.d.c.r.6.;.@.&.M ",
"3.8.e.h.r.1.-.e.1.J R H } ;X`.5.5.2.w.r.6.i.<.:.s.;.q.U.l.3.u.9.W Y <.m.n.c w ^.OXd.8.r.z.d.6.>.#.) [ @.-.9.6.3.6.6.5.4.o._ @.F ",
"1.8.i.s.0.3.3.9.:...i.@.L Z.R.8.2.;.3.9.9.u.w.z.m.$.5.m.i.8.k.1.R ..z.h.{ = 7 R.OXi.&.+.&.;.+.W ~ } #.:.e.u.=.X.&.,.2.2.@.o.-.Y ",
"A W X.+.} } } R V F +.j 3 u.k.^ F F _ { W _ } $...C I  .} } $.^ R *.3.I y < A T.T.[ f c J L n j ' :.-.1.u.*.D n D W ) ' ~ W [ U ",
"1 y i s k N c 9 % < j 1 s u.O.8 y V ~ n = i t > 7 i j f 7 p V d y v f 3 v Y X.u.>.r $ s J I n n ! Y f j F B i y B L J A s 5 f S ",
"@.c.k.k.l.h.q.4.6.z.!.f.9.D.f.1.N.L.d.^ W c.u.&.1.o.*.u.j.C.c.&.&.0.2.r.Z.N.b.N.c.1.>.b.T.K.s.f.G.d.Y M  .3.6.d.G.V.z.f.3.' $.k.",
"^.tXOX#X=X[.R.K.^.>XrX@X`.,X#X2XfX>Xm.u.|.fX|.T.N.3.L.3X1XOXL.C.^.@X=X>X}.(.}.(.`..X@X0X2X`.E..X2X}.5.X.^.8X>X:X@X^.!.}.(.S./.8X",
"K.}.w.l.n.r.1.[ <.h.f.6.e.S.P.R.!.v.8.b..XT.8.-.P I G.`.d.1.9.h.N.n.K.S.h.N.S.a.f.f.q.h.s.i.b.m.l.f.G F -XgX(.b.r.0.u.j.i.6.l.!.",
"b.^.s.Z.c.9...R :.0.-.O.$.u.d.i.u.5.,.i.n.u.3.-.B F E.OXj.r.j.C.b.i.i.e.2.9.0.6.2.o.} 3.5.e.s.8.1.o.y V 8X8Xu.3.3.1.6.1.+.&.q.h.",
"h.}.V.m.r.*.^ +.i.r.9.0.i.c.i.5.3.,.O...:.3.6.1.N V ^.OXu.2.e.f.0.-.:.-...' ,.u.2.=.f.s.1.w.i.6. .A r W |.U.&.3.3.,.3.>.-.w.f.i.",
"c.&Xm.8.:.-.*.0.7.1.f.j.u.r.8.5.3.,.} ) 1.u.6.&.j A +X%X2.[ =.3.:.+.#.-.-.3.a.f.2.4.f.8.q.N.h.-.[ ^ I } D.z.;.*._ @.6.r.u.j.d.7.",
"G.[.>.{ ^ ~ ) ) Y _ O.~ ~ } ) ^ ) D v ~ e.r...R 9 n (.T.' I _ [ W ! R ~ @.-.*.! B F ~ ^ *.8.' F ' ;.W ( l.u.;./ B } $.} { ' ) W ",
"u.=.M v v k s 3 7 f i 2 c j $ = > O $ V ~ C 3 @   s u.O.q , f C i f 8 q C a 2 $ 1 S R D B s $ - A Y t j } / T B f F a = = & > t ",
"D.m.8.O.o.1.$.) =.5.,.&.3.-.+.3.0.:.>.z.r.' S J ) r.L.a.....j.M.2.9.&.3.u.W N P w.!.P.j.r.*.} 0.V.s._ $.v.C.v.3.@.1.&.@.>.O.;.6.",
"`.@X[.F.L.R.c.Z.>X2X>X!.z.&X0X@X-XOX`.-X&X!.L.|.@X#X;X&X|.OX3X%XU.P.).oX(.9.<.`.hXsX@XR.!.L.E.<X0X}.V.E.>X0X@XG.E.%X#XOX.X[.3X`.",
"q.i.V.V.G.f.8.l.R.C.i.^ W oX[.:.k.b.r.z.V.N.c.j.c.!.[.!.D.C.v.a.-.X.r.h.u...X.1XsXS.u.u.i.3.6.C.l.,.3.s.D.Z.q.,.h.D.v.8.6.c.S.@.",
"e.r.m.u.2.5.i.f.r.*.P 7 v [./.1.n.h.@.,.r.t.,.' 0.G.c.r.6.9.6.1.$.+.3.i.h.' ' 2XOX$.o.<.6.-.3.j.>. .5.u.l.u.*.&.w.l.w.@.3.z.3.A ",
"f.<.:.} ' 8.8...O.O.+.! #.2X$Xr.a.6.-.6.f.e.&.,.n.C.>.+.$.*.1.5.w.9.r.C.f.A G (.E.;.@.2.q.-.@.;.%.i.V.v.d.0.3.9.c.C.w. .@.e.w.E ",
"9.^ ! #.=.2.$.( O.1.u...' (.C.} #.$.1.u.i.;.&.4.1.1.:.:.>.*.8.e.9.3.u.f.,.k v b.K.5.$.9.h.6.*.3.i.V.c.w.9.9.,.*.u.i.+.R ' 8.s.W ",
"{ C W =.{ { <.1.3.i.i.B w e.3._ #.' o.-.$.o.2.:.R / ' ! ' *.9.>.} { =.=.' v A z.G.2.O.6.q...^ ;.i.u.X.L E ' ~  .3.&.I ( 2.u.8.B ",
"= < N N c G W F a c D < 7 7.-.W ! B f n F J W V r a a r v N n f 7 < p t 9 s J :.o.n j v q @ O n I V 7 X 8 p d H L t < j v f q o ",
"D X.;.@.d.i.6.&.W $.3.' -.E.G.u.f.0._ O.=.$.&.X.~ U [ ,.r.>.@.' Y Y o.{ @.i.i.i.w.3.1.) v B [ c.u.O.A i +.6.*.$.' J X.3.} R ! [ ",
"`.>XK.!.<X[.L.(.#X0X&XC.[.aX3X.X<X=XE.}.OX X(.N.-.X.C.OX%XOX[.L.T.|.%X=X-X=X^.E.#X0X1XT.z.D.=XsX|.T.r.,.>X8XU.T.!.`.5X8X#X`.=X8X",
".X&Xc.c.L.l.2.N.R.S.j.h./._.N.N.K.D.c.C.R.R.u.( a n T.<X^.C.r.>.f.U.E.^.n.f.i.s.C.P.D.z.z.D.[.`.N.c.' A L.^.c.L.R.!.U.M.c.v.^.}.",
"G.%Xq.6.S.i.&.c.c.<.| 3.x.t.8.q.r.0.1.3.8.:.Y J z U %XOXr.1.' ( e.F.b.r.$.=.2.q.h.i.1.,.0.z.N.C.f.>.5 = h.L.k.b.l.f.1._ ( -.u.u.",
"h.[.=.,.Z.c.r.V.k.*.^ :.t.q.e.:.-.-.%.:.3.^ F *.} $.@XK.3.1.o.8.G.T.u.+.o.*.<.e.0.&.%.:.3.3.0.h.r._ - f [.>Xm.u.e.8.[ V R 3.>.-.",
"s.K.=.,.f.f.w.r.=._ #.h.c.q.X.Y +.6.:.0.0.[ *.D.>...!.T.n.r.>.V.K.n.1.X.<.<.9.i.+.' 6.u.3.-.3.6.3._ 7 A =X<X8.#.;.5.' I 9.G.i.6.",
"c.F.0.6.2.=.[ W v B O.e.9.{ S C o.>.$.*.} I [ 6.n t d.U.j.>.>.a.3.:.} { 3.3.;.} F  .3._ ! / / ..$.H 9 ' 3XR.W ~ [ +.I I u.C.3.o.",
"i.e.&.( R W V f < r D N q ; r v v k 9 = $ O - t $ , =.&.n i a i r j j n A s - < z K a > k c z R M O ; T 8.F < t s n a 1 c B f s "
};
