/* XPM */
static char *c22cb8747fb648e0a7b3db0130b75680w6oVoQz8opsnX3gX[] = {
/* columns rows colors chars-per-pixel */
"64 64 256 2 ",
"   c white",
".  c #0000FC",
"X  c #0000FC",
"o  c #0000FC",
"O  c #0000FC",
"+  c #0000FC",
"@  c #0000FC",
"#  c #0000FC",
"$  c #0000FC",
"%  c #0000FC",
"&  c #4038FC",
"*  c #483028",
"=  c #301808",
"-  c #281810",
";  c #201808",
":  c #DC8420",
">  c #DC7830",
",  c #D47838",
"<  c #DC7820",
"1  c #CC7830",
"2  c #D47030",
"3  c #D47020",
"4  c #CC7028",
"5  c #C47020",
"6  c #A46838",
"7  c #BC6018",
"8  c #787060",
"9  c #BC5820",
"0  c #706860",
"q  c #946030",
"w  c #8C5028",
"e  c #8C5018",
"r  c #844818",
"t  c #585040",
"y  c #784010",
"u  c #703810",
"i  c #504028",
"p  c #583010",
"a  c #403018",
"s  c #482808",
"d  c #482010",
"f  c #302820",
"g  c #D4D4AC",
"h  c #BCDC9C",
"j  c #CCC4AC",
"k  c #A4C48C",
"l  c #94C478",
"z  c #A4A484",
"x  c #60C448",
"c  c #50CC38",
"v  c #8CA468",
"b  c #68AC60",
"n  c #709460",
"m  c #50A438",
"M  c #947860",
"N  c #708460",
"B  c #509C40",
"V  c #847858",
"C  c #8C7058",
"Z  c #588C40",
"A  c #687058",
"S  c #408C28",
"D  c #388C30",
"F  c #706050",
"G  c #686048",
"H  c #288C18",
"J  c #506840",
"K  c #407028",
"L  c #585848",
"P  c #287020",
"I  c #505030",
"U  c #385030",
"Y  c #484038",
"T  c #305018",
"R  c #285020",
"E  c #205010",
"W  c #204010",
"Q  c #102000",
"!  c #B48448",
"~  c #B47850",
"^  c #AC7048",
"/  c #9C7050",
"(  c #847070",
")  c #946048",
"_  c #845840",
"`  c #0000FC",
"'  c #583820",
"]  c #CC6020",
"[  c #B46820",
"{  c #AC5020",
"}  c #9C5020",
"|  c #483820",
" . c #383028",
".. c #382810",
"X. c #281008",
"o. c #181008",
"O. c #100800",
"+. c #E48428",
"@. c #E47828",
"#. c #D48428",
"$. c #D47828",
"%. c #CC7038",
"&. c #D46828",
"*. c #C46830",
"=. c #C46818",
"-. c #BC6028",
";. c #AC6028",
":. c #9C6038",
">. c #B45818",
",. c #A45818",
"<. c #945828",
"1. c #A44818",
"2. c #845020",
"3. c #944818",
"4. c #784818",
"5. c #844010",
"6. c #783818",
"7. c #684018",
"8. c #683010",
"9. c #502810",
"0. c #402820",
"q. c #402008",
"w. c #302018",
"e. c #00FC08",
"r. c #DCD4BC",
"t. c #CCDCAC",
"y. c #D4CCB4",
"u. c #CCCCA4",
"i. c #BCD4A4",
"p. c #8CEC70",
"a. c #A4DC8C",
"s. c #ACD494",
"d. c #B4CC9C",
"f. c #BCC4A4",
"g. c #CCBCA4",
"h. c #9CD478",
"j. c #A4CC84",
"k. c #ACC494",
"l. c #60F448",
"z. c #C4B49C",
"x. c #B4BC9C",
"c. c #70E460",
"v. c #8CD470",
"b. c #48FC30",
"n. c #50F440",
"m. c #A4BC84",
"M. c #BCAC94",
"N. c #78D460",
"B. c #ACB494",
"V. c #38FC28",
"C. c #8CC470",
"Z. c #9CBC78",
"A. c #60DC48",
"S. c #B4A48C",
"D. c #A4AC8C",
"F. c #78C460",
"G. c #48E430",
"H. c #9CAC78",
"J. c #50DC40",
"K. c #20FC18",
"L. c #38EC28",
"P. c #8CB468",
"I. c #AC9C84",
"U. c #68C458",
"Y. c #10FC10",
"T. c #A49C78",
"R. c #10FC00",
"E. c #94A470",
"W. c #78B460",
"Q. c #38DC28",
"!. c #40D430",
"~. c #58C440",
"^. c #48CC40",
"/. c #84A470",
"(. c #20E418",
"). c #9C9484",
"_. c #68B458",
"`. c #9C9470",
"'. c #10EC08",
"]. c #78A460",
"[. c #60B448",
"{. c #40C430",
"}. c #8C9470",
"|. c #948C78",
" X c #68A458",
".X c #9C8470",
"XX c #50B438",
"oX c #10DC08",
"OX c #30C420",
"+X c #60A448",
"@X c #50AC48",
"#X c #948460",
"$X c #8C8470",
"%X c #40B430",
"&X c #689458",
"*X c #848460",
"=X c #8C7868",
"-X c #609448",
";X c #30B420",
":X c #20BC18",
">X c #40A430",
",X c #489C38",
"<X c #688458",
"1X c #847060",
"2X c #10BC08",
"3X c #608448",
"4X c #20AC18",
"5X c #488C38",
"6X c #846850",
"7X c #309C20",
"8X c #786858",
"9X c #508440",
"0X c #786848",
"qX c #10AC08",
"wX c #607048",
"eX c #686850",
"rX c #507840",
"tX c #408430",
"yX c #785848",
"uX c #308420",
"iX c #685850",
"pX c #208C10",
"aX c #109408",
"sX c #685838",
"dX c #486838",
"fX c #307820",
"gX c #387030",
"hX c #705040",
"jX c #605048",
"kX c #207810",
"lX c #108408",
"zX c #306820",
"xX c #485838",
"cX c #604838",
"vX c #504840",
"bX c #584030",
"nX c #484830",
"mX c #206010",
"MX c #106810",
"NX c #305028",
"BX c #106800",
"VX c #483830",
"CX c #FC480C",
"ZX c #FC0818",
"AX c #D81028",
"SX c #FC0000",
"DX c #0000FC",
"FX c #0000FC",
"GX c #0000FC",
"HX c #0000FC",
"JX c #0000FC",
"KX c #0000FC",
"LX c #0000FC",
"PX c #0000FC",
"IX c #0000FC",
"UX c black",
/* pixels */
"5.>.1.{ 1.>.1.{ 1.3.1.{ ).6.1.3.9 &.{ >.9 { 9 3.1.{ ] >.{ >.5.8.5.{ 1.{ { { 5.3.1.>.1.9 1.{ 1.>.1Xw 9 3.1.-.1.>.5.3.5.{ { 3.5.5.",
"3.1.{ 1.3.1.{ 9 1.1.3.3.).3.3.5.{ 9 1.1.{ 1.w 1.{ 1.{ 1.1.1.8.8.8.1.5.5.1.{ 5.5.6.1.w 1.5.5.3.5.$X) 3.9 1.1.{ 1.3.3.w 9 { 9 { 1.",
"1.{ { w 3.-.1.3.5.{ 1.3.).;.9 { 1.{ { 3.9 w 3.{ ] { 1.{ 1.{ 1.>.1.3.1.6.1.{ { -.3.w { 6.1.3.5.{ .Xw 1.{ 1.{ ] { 1.{ 9 { ] &.] -.",
".X~ C M C ~ ~ ) C S.~ .Xx.~ ~ ~ .X~ ~ ~ ^ ~ C ~ ) C ~ S..X~ ~ ~ .X~ / ~ .X~ ~ ~ .XC ) 1X.XS.~ ~ x.S.~ ~ ! ~ ~ ~ .XC C ~ , ~ ~ ~ ",
"%.:.w :.) w ) ^ :.^ ~ ^ ) } 3.:.%.^ ~ w 3.:.w w 9 -.9 2 9 :.#X.X~ ! %.^ ~ ^ ) w w :.9 ^ ~ ! ~ ^ ~ ^ { :.9 2 %.w { :.w 6.w -.9 2 ",
"{ 5.3.5.5.5.3.1.1.5.-.1.6.5.8.5.6.3.{ 1.6.5.6.5.1.1.3.5.6.5.C / w 3.{ { { 9 6.5.6.5.3.1.3.9 -.5.6.5.3.3.8.3.3.5.6.1.6.5.1.5.8.9 ",
"1.{ 1.>.1.6.1.>.1.3.5.6.5.{ 1.3.5.w 1.{ 5.6.1.{ 1.{ 1.6.1.6.#XC { 3.1.9 9 >.1.>.1.>.1.5.1.{ 1.3.5.3.5.w 5.6.5.3.5.6.9 3.1.6.5.>.",
"6.1.1.1.>.1.1.1.1.1.8.1.>.6.6.1.3.3.5.1.{ 1.1.1.9 1.{ 1.{ 3.C M 9 1.1.1.{ 6.6.1.>.1.1.1.>.1.1.1.6.8.8.3.3.{ 1.1.3.1.{ 1.>.1.1.1.",
"1.{ 1.>.1.>.1.>.5.3.1.{ 1.5.5.3.9 3.5.3.] -.1.{ 1.3.1.{ 1.{ M ) 1.3.1.6.5.6.5.>.5.8.5.{ 5.{ 1.3.5.6.5.{ 1.{ 1.{ 1.{ { { 1.5.1.6.",
">.1.1.1.1.1.{ 5.8.1.5.1.6.3.3.1.{ 5.{ 1.1.1.3.9 6.5.6.1.3.9 C ^ 3.1.3.1.{ 1.1.1.6.5.8.1.6.1.{ 1.{ 5.3.1.{ 5.{ { { 1.{ 9 3.5.3.1.",
"{ >.1.>.1.>.1.5.1.>.5.8.5.{ %.9 9 { ] 3.5.6.1.{ 5.6.5.3.1.{ 1XM ] { 1.>.9 >.{ >.1.5.1.>.9 >.1.>.1.{ 9 { 1.w ] { 1.6.5.{ 5.8.u 3.",
">.{ { 5.3.1.3.1.3.1.8.5.6.{ { ] >.3.{ 9 { 3.1.3.3.3.;.1.:.1.C ~ { { { 9 >.1.9 1.>.1.6.1.{ 1.3.1.{ 9 { 9 6.3.{ 1.>.3.3.5.-.3.3.5.",
"1.>.1.>.1.6.1.{ 5.6.1.6.1.{ 1.:.{ 3.1.>.] { 5.3.1.{ 9 { 9 { .X6 1.{ 1.3.5.5.1.{ { >.5.6.1.3.1.>.1.{ 9 2 w 3.5.6.1.w 1.6.9 >.9 3.",
"3.5.6.5.3.5.{ 1.6.5.3.1.1.%.:.9 w 1.3.1.:.1.w 9 1.1.:.{ { { $X:.3.1.{ 5.8.5.8.3.3.5.{ 3.1.5.3.1.1.5.:.%.w 9 3.5.{ 9 -.3.3.{ 2 1.",
"sXC / C M / / / ) 6XhX) ) C #X.X/ .X/ 6X/ .X) 6X/ C :.C M C .X( M _ ) 6XsX6XhXC M 6X/ 6X/ M ) r cX6X.X.X) C ) C ~ .XM C sXC ~ C ",
"$XS.M S.M.S.S.S.M.S.yX.X}.~ ~ ~ , ~ S.~ .X~ C / C S.~ ~ .X~ C ~ , S.~ ~ $XM C S.I.~ S..X.XS.~ .X$X.X, ~ .X~ S.~ .X~ ~ ~ 6X~ ~ ~ ",
"1.3.5.-.%.&.{ { 9 -.9 -..X:.1.:.{ >.] { 1.3.1.{ 1.9 ] 9 1.3.1.>.9 { { -.9 w 1.-.%.&.{ { { -.] { M 2 ] ;.] { 1.{ 9 3.1.3.5.3.5.3.",
"{ 1.3.1.9 9 >.1.{ 1.{ 1.C 9 { ] 1.1.6.5.1.1.1.1.{ 1.3.1.{ 1.>.5.1.1.3.1.{ 1.{ 1.3.1.1.1.1.1.{ { C 9 { 1.3.{ 6.5.{ 1.3.1.3.1.3.1.",
"1.3.1.3.1.6.1.{ 1.3.1.3..X:.1.;.1.6.5.3.1.>.{ >.1.>.5.>.1.>.1.6.1.3.1.>.1.>.9 >.1.>.1.>.1.3.{ { M w 1.-.3.3.1.3.1.5.1.{ 9 { ] >.",
">.{ 9 1.6.8.1.1.{ 6.{ 9 $X%.{ 9 >.{ { { >.5.5.5.>.{ { 1.>.5.1.1.{ 1.1.9 >.1.{ 1.9 1.1.1.3.1.{ 3.C w 1.9 w 3.9 1.{ 1.1.{ >.1.1.1.",
"5.>.1.{ 1.{ ] >.1.>.{ { 1X{ 1.-.1.2 9 3.5.{ 5.6.1.>.] >.1.>.5.{ ] &.1.>.1.>.1.3.9 { { >.1.>.1.3./ :.9 { 1.:.%.>.9 >.1.3.1.6.5.5.",
"3.1.>.9 9 %.>.1.6.1.>.1.C 3.{ 1.{ { { 1.1.{ { 3.3.] 9 1.{ 1.6.1.9 ] { 1.{ 3.6.{ { ;.1.{ 1.1.>.1.$X) { 3.{ ] &.{ &.] { 1.{ 9 6.5.",
"] >.{ { 1.>.1.9 1.{ 1.3.).6 1.>.1.{ 9 9 9 9 1.{ 1.{ 1.{ 1.3.1.6.5.6.1.3.1.>.1.{ 1.{ 1.9 1.>.1.>.S.^ 1.w 1.{ ] 9 ] 9 1.>.1.9 1.3.",
"9 1.{ 1.6.5.8.1.>.1.{ 1.D.{ { 9 { ] 9 9 >.1.3.1.{ 1.1.{ >.1.{ 1.8.8.{ { 9 { 9 1.{ 9 1.1.>.1.3.1.}.9 9 1.6.1.5.1.3.1.{ 5.3.9 { 1.",
"1.6.1.{ 1.6.5.>.1.>.] { ).w 1.{ 9 &.] { 5.6.1.{ 9 >.1.{ 1.>.1.>.5.6.{ 9 ] >.1.-.1.>.1.{ 1.>.9 6..X<.{ 9 1.&.5.8.5.{ 9 3.5.3.9 5.",
"{ 1.1.{ w 1.-.1.{ 9 { 1.).9 { 1.{ 1.w 9 3.3.{ 1.{ ] 9 9 1.1.6.] { 1.5.1.9 1.3.{ { 1.3.1.5.5.{ 1.M.9 { { 6.9 { 5.3.1.{ 9 { 9 { 3.",
":.^ ~ ) :.^ ~ ^ ~ ) :.) z.^ %.2 ~ ^ ~ ^ ) ^ ~ ^ 9 ^ ~ 2 ) w ) ^ ~ w cXw ) ^ :.^ ~ ^ :.w ) r :.) ).^ ~ ^ 3.w ) ^ 9 ^ :.:.%.^ %.w ",
".X~ ~ ~ ^ ~ ~ S.M.S.M #X.X^ ^ ~ ! ~ ~ ~ ^ ~ ^ ~ ! ^ ~ ~ ! ~ S..X! ~ 6 ) 4.:.~ ~ .X~ ~ S..XM ) M .X~ ~ ~ ^ ^ ~ ~ ) ^ ^ :.) ^ ~ :.",
"1.{ 1.{ 1.3.5.3.3.:.3.3.3.6.5.w 1.:.9 3.1.{ 1.{ 1.3.5.{ 1.{ / M %.-.1.3.5.{ 1.3.1.3.5.3.3.} 3.6.5.3.1.{ 5.w { { 1.3.1.3.1.>.{ 3.",
"{ 1.>.5.{ 1.3.5.8.9 { 5.6.1.3.1.{ { 3.1.{ 1.{ 1.1.1.3.6.6.5.( / 2 1.6.1.{ 1.1.5.6.5.6.5.6.9 { 5.6.5.3.1.3.3.{ 1.{ 1.3.1.6.1.6.5.",
"1.6.5.6.1.>.1.>.5.9 5.3.5.3.1.3.] -.1.3.1.>.9 { ] 3.1.3.5.3..XC { { 1.{ { >.1.>.1.>.1.6.1.{ 1.>.1.6.1.3.1.{ 1.3.1.{ 1.{ 1.8.5.6.",
">.1.3.1.>.1.1.1.8.6.8.1.>.1.1.5.{ 1.{ 1.8.6.1.1.9 1.1.1.>.1.~ ~ { 1.{ 1.{ 1.1.1.>.1.5.1.>.1.5.1.>.1.8.5.3.1.{ 1.3.3.{ 1.{ 1.3.3.",
"] >.1.>.1.3.1.>.1.6.5.3.1.{ 1.3.3.5.{ { 5.8.5.6.1.{ 1.3.5.3./ ) 9 >.1.3.1.3.1.6.1.>.5.>.5.{ 5.6.5.3.5.6.9 5.5.3.1.3.5.6.5.{ 1.{ ",
"1.{ 3.1.6.1.>.1.6.1.1.1.{ 9 :.1.6.u -.{ 9 1.6.8.6.1.{ 1.1.1.8 ) { { { { { 1.{ 5.{ 5.{ 1.{ 1.>.5.3.3.-.1.{ 3.3.5.1.1.{ 1.3.3.{ { ",
"1.>.1.>.5.>.1.>.] >.1.>.1.3.9 { 1.{ 9 3.1.{ 1.{ 3.:.] >.] 3..X! ] 9 ] { { >.1.6.5.8.5.{ ] >.1.>.9 { 1.6.5.3.] { 1.{ 1.3.1.w 9 6.",
"3.5.{ 1.{ 5.6.5.>.1.3.1.6.5.{ { -.{ { 1.6.3.1.1.-.{ 2 { &.1.C ~ &.{ 1.1.>.1.1.5.8.8.5.1.9 1.3.5.6.1.1.{ w 1.&.] >.{ { 5.{ 9 :.5.",
"5.8.1.>.1.6.5.6.1.9 1.>.1.{ 9 2 9 >.1.3.5.{ 9 { 5.6.%.{ ] { 1X^ { 9 1.{ ] { 1.6.1.>.1.3.] >.1.3.5.{ 9 :.{ 3.1.3.{ -.1.w 5.>.9 5.",
"} w :.w w w 3.6.6.9 w w w 9 ^ ~ :.9 w ^ :.3.w 9 :.3.w 3.} :.( / w 3.-.9 } ) w w w 9 w 6.} w :.:.w ) ^ :.w 3.6.:.:.9 w ^ w 3.w w ",
").I.S.S.).}.).C F M S.$X.X$XS.I.S.I.S.M.S.$XS.M.S.$X8X( S.I.).$X.XeXM $XS.I.).I.z.I.).eX8 $XS.$X.X}.S.I.S.$XS.I.S.I.S.I.S.M..XM.",
"^ %.w ~ ! 6 2 ) w w ^ ~ , ^ 2 %.2 9 :.9 :.9 :.9 :.9 :.9 :.%.6 %.:.3.:.9 2 ~ 2 ~ ! %.2 ) ^ ~ ^ ~ .X^ 2 %.2 9 2 %.2 %.2 %.-.9 w 9 ",
"1.{ 3.{ ] >.1.6.5.3.1.9 M ;.1.{ 1.{ 1.3.1.{ 1.{ 1.9 { >.1.>.1.>.1.{ 1.6.1.>.1.{ 9 >.{ >.1.>.] >.M :.1.{ 1.>.1.{ 1.>.1.>.1.>.5.6.",
"{ 1.{ 1.{ 1.{ 1.1.1.{ 1.$X9 3.1.6.{ { ] 9 1.{ 1.{ { 9 1.{ 1.5.{ 6.1.{ 5.8.1.6.1.{ 1.1.1.6.5.1.1.C ) 3.1.3.1.3.1.{ 1.1.1.{ 1.{ 1.",
"1.>.1.3.1.{ 1.>.{ { { w .X-.] &.%.9 { { { >.1.>.3.{ 9 >.1.>.1.6.5.{ 1.>.5.8.5.{ { { 1.>.1.3.1.3.M ^ 1.{ 9 { { { 1.6.1.5.3.>.{ >.",
"{ 5.{ 5.-.1.1.1.3.1.1.1.M ;.9 { &.2 9 5.{ 9 1.1.5.1.{ 1.6.5.1.5.{ { { 1.>.5.3.1.{ 1.1.1.6.1.{ 1.C 2 { 1.9 %.9 { 6.8.8.5.>.9 9 9 ",
"1.>.1.>.] :.{ >.1.6.1.{ ~ ;.1.w 1.{ { 3.9 9 { 6.1.>.] >.1.6.5.>.] &.{ { ] >.5.6.1.-.9 >.1.>.1.3.) :.1.6.1.9 ] >.9 6.5.8.1.>.] >.",
"1.1.1.{ 9 ] >.] 1.5.>.1.$X9 { 9 1.1.3.1.{ 1.8.9 3.1.1.] { 1.3.1.9 %.>.1.>.{ 1.9 9 1.{ 1.{ 1.1.1.$X~ >.u 8.1.{ 1.&.] { 1.{ 1.3.{ ",
"9 >.1.3.{ >.{ 9 { >.{ 3.1Xw { >.] >.{ >.] >.1.{ 1.{ 1.>.{ >.1.>.9 >.] 6.1.>.{ &.{ >.1.3.9 >.{ >.S.^ ] 3.5.6.{ { 1.{ 1.{ { -.1.>.",
"9 1.{ 1.>.9 { 9 >.1.{ 5.8 1.&.1.{ 1.9 1.3.1.9 1.{ 9 { 1.>.{ 1.9 { 5.{ 9 9 { { ] 1.1.1.1.>.{ 9 { M.;.9 1.3.3.{ { { { { 9 >.{ 1.1.",
"] 9 ] ;.1.{ 1.9 { { 1.6.).:.] >.5.{ ] { 5.6.3.-.9 { ] 9 1.>.1.{ 1.5.{ { { { 1.3.5.>.1.{ 5.{ ] { S.:.] >.{ { ] { 9 2 { 3.1.{ 5.6.",
"{ { :.%.:.3.w 1.{ { w 3.).9 { 1.{ ;.-.{ 3.3.w %.&.{ -.{ 3.1.6.{ { 1.{ 9 { { :.w w { :.9 w 3.-.1.$X9 9 %.{ { 2 { w %.2 ;.&.{ { 1.",
"~ .X~ .XM .XM C ~ $X.XM.S..X:..X~ .XM .X~ .X~ , S., S..X) .X.X$X~ .X~ .XS..X~ .XM .XS.I.~ C .XM )..X~ .X~ .X~ .X~ .X~ ! S.! ~ , ",
"2 %.;.1.w 9 :.) w :.^ 9 :.w 6.{ 2 %.2 { -.;.{ { 2 { :.9 3.9 ~ M ^ ~ 2 %.2 %.{ 1.-.:.:.%.:.w w 9 :.{ { { -.9 2 { 3.3.3.{ 2 9 { %.",
"] >.1.6.1.{ 1.>.5.-.{ 3.1.{ 1.{ 1.-.9 { 1.{ 1.{ 9 >.5.{ 1.3..XM 9 { 1.&.{ >.5.6.1.>.1.>.1.{ 1.3.1.{ 1.{ 1.{ 9 { 1.3.5.3.{ { 5.{ ",
"9 1.5.5.1.1.1.1.6.9 { 1.{ 1.{ { { 9 >.{ 6.1.{ 1.{ 5.{ 9 1.1.$X~ 2 1.3.] >.1.{ 1.1.1.1.1.1.9 6.3.{ 1.3.5.6.3.{ { { 1.3.5.{ 1.6.1.",
"{ { 1.>.1.>.5.6.5.9 9 >.5.6.1.3.1.{ 1.>.1.3.1.{ 9 5.1.{ { { ~ .X{ 3.1.3.1.{ { >.1.3.1.>.1.{ 1.>.5.>.1.3.1.{ 1.{ 1.{ 1.6.1.3.1.3.",
"{ 1.1.1.>.5.8.5.8.{ { 1.6.8.6.1.3.8.8.1.9 { 1.1.-.1.{ { { ] S.~ { 1.5.5.{ 1.1.1.>.1.1.1.>.1.{ 1.8.5.1.1.{ 1.6.5.6.{ { 1.&.{ 6.1.",
"1.>.1.>.1.>.5.8.5.>.1.>.1.6.{ { 1.6.3.{ ] >.9 3.1.{ 1.{ 1.{ #X^ 9 >.1.{ { >.1.{ 1.>.1.>.1.{ 1.>.5.8.{ 9 9 6.3.3.1.3.1.{ 9 9 1.3.",
"1.9 { 1.1.{ 1.1.3.1.3.1.{ 1.2 ] { 1.&.1.1.1.{ 1.6.3.{ { { 9 $X~ { ] { 1.{ 9 9 1.1.1.1.1.{ 1.>.1.{ 1.{ { { 1.9 { 1.1.3.1.{ 1.9 1.",
"9 >.9 >.1.{ 1.3.] >.1.>.1.9 ] 9 1.{ ] { 9 3.9 { 1.:.%.>.] 9 S..X1.9 { { 1.>.9 >.1.6.5.5.1.>.1.>.1.>.1.3.{ -.] { 9 { 1.3.5.w { { ",
"&.{ { 1.>.1.1.{ >.{ 1.1.>.1.9 %.:.{ { 1.{ 1.1.5.>.9 2 1.1.{ S.~ { 1.9 1.{ 1.6.1.{ 1.1.1.3.1.1.1.>.1.1.5.:.{ 9 { &.{ { 9 3.1.2 9 ",
"1.{ 9 w 5.{ 9 -.] &.9 { 1.-.%.2 %.{ 1.-.{ { 1.{ 9 -.%.&.1.w 1XM 9 3.] { 1.3.5.6.9 >.9 w 9 { 5.{ 5.-.~ w 3.{ 1.;.%.{ 3.-.9 3.%.{ ",
"C M C 1X1XM M M C .X.X/ $XM I.~ S.M M .XS.S.$XM M .X$XS.$XM $X.XM M M M C M C 8X1XM C M / M 6XhX6X.XM.~ M M M ~ C M C 1X.XM .X.X",
"~ .X~ , S., ~ .X~ .X~ .X).M ~ ^ ~ .X~ .X~ , ~ ^ ~ ! ~ ! ~ .X~ ! ~ , ~ .XS.M.~ .XM .Xz.M.S.M.~ .XS., z.! ~ ^ ~ .X~ ! ~ ^ ~ .X~ ! ",
"{ 1.{ 1.2 ] 9 ] -.1.3.9 $Xw { 5.{ 1.{ 3.>.{ 1.1.3.{ { 9 { 1.9 1.9 9 { 1.{ 9 2 { { 1.&.{ 2 9 { 1.C 9 { { >.1.{ 1.{ 9 { 1.6.1.1.] "
};
