/* XPM */
static char *_4c75676ca124764f9422e72f76bb0ceHznHo3Y655WjiAvn[] = {
/* columns rows colors chars-per-pixel */
"64 64 256 2 ",
"   c white",
".  c #0000FC",
"X  c #0000FC",
"o  c #0000FC",
"O  c #0000FC",
"+  c #0000FC",
"@  c #0000FC",
"#  c #0000FC",
"$  c #0000FC",
"%  c #0000FC",
"&  c #4038FC",
"*  c #483028",
"=  c #301808",
"-  c #281810",
";  c #201808",
":  c #DC8420",
">  c #DC7830",
",  c #D47838",
"<  c #DC7820",
"1  c #CC7830",
"2  c #D47030",
"3  c #D47020",
"4  c #CC7028",
"5  c #C47020",
"6  c #A46838",
"7  c #BC6018",
"8  c #787060",
"9  c #BC5820",
"0  c #706860",
"q  c #946030",
"w  c #8C5028",
"e  c #8C5018",
"r  c #844818",
"t  c #585040",
"y  c #784010",
"u  c #703810",
"i  c #504028",
"p  c #583010",
"a  c #403018",
"s  c #482808",
"d  c #482010",
"f  c #302820",
"g  c #D4D4AC",
"h  c #BCDC9C",
"j  c #CCC4AC",
"k  c #A4C48C",
"l  c #94C478",
"z  c #A4A484",
"x  c #60C448",
"c  c #50CC38",
"v  c #8CA468",
"b  c #68AC60",
"n  c #709460",
"m  c #50A438",
"M  c #947860",
"N  c #708460",
"B  c #509C40",
"V  c #847858",
"C  c #8C7058",
"Z  c #588C40",
"A  c #687058",
"S  c #408C28",
"D  c #388C30",
"F  c #706050",
"G  c #686048",
"H  c #288C18",
"J  c #506840",
"K  c #407028",
"L  c #585848",
"P  c #287020",
"I  c #505030",
"U  c #385030",
"Y  c #484038",
"T  c #305018",
"R  c #285020",
"E  c #205010",
"W  c #204010",
"Q  c #102000",
"!  c #B48448",
"~  c #B47850",
"^  c #AC7048",
"/  c #9C7050",
"(  c #847070",
")  c #946048",
"_  c #845840",
"`  c #0000FC",
"'  c #583820",
"]  c #CC6020",
"[  c #B46820",
"{  c #AC5020",
"}  c #9C5020",
"|  c #483820",
" . c #383028",
".. c #382810",
"X. c #281008",
"o. c #181008",
"O. c #100800",
"+. c #E48428",
"@. c #E47828",
"#. c #D48428",
"$. c #D47828",
"%. c #CC7038",
"&. c #D46828",
"*. c #C46830",
"=. c #C46818",
"-. c #BC6028",
";. c #AC6028",
":. c #9C6038",
">. c #B45818",
",. c #A45818",
"<. c #945828",
"1. c #A44818",
"2. c #845020",
"3. c #944818",
"4. c #784818",
"5. c #844010",
"6. c #783818",
"7. c #684018",
"8. c #683010",
"9. c #502810",
"0. c #402820",
"q. c #402008",
"w. c #302018",
"e. c #00FC08",
"r. c #DCD4BC",
"t. c #CCDCAC",
"y. c #D4CCB4",
"u. c #CCCCA4",
"i. c #BCD4A4",
"p. c #8CEC70",
"a. c #A4DC8C",
"s. c #ACD494",
"d. c #B4CC9C",
"f. c #BCC4A4",
"g. c #CCBCA4",
"h. c #9CD478",
"j. c #A4CC84",
"k. c #ACC494",
"l. c #60F448",
"z. c #C4B49C",
"x. c #B4BC9C",
"c. c #70E460",
"v. c #8CD470",
"b. c #48FC30",
"n. c #50F440",
"m. c #A4BC84",
"M. c #BCAC94",
"N. c #78D460",
"B. c #ACB494",
"V. c #38FC28",
"C. c #8CC470",
"Z. c #9CBC78",
"A. c #60DC48",
"S. c #B4A48C",
"D. c #A4AC8C",
"F. c #78C460",
"G. c #48E430",
"H. c #9CAC78",
"J. c #50DC40",
"K. c #20FC18",
"L. c #38EC28",
"P. c #8CB468",
"I. c #AC9C84",
"U. c #68C458",
"Y. c #10FC10",
"T. c #A49C78",
"R. c #10FC00",
"E. c #94A470",
"W. c #78B460",
"Q. c #38DC28",
"!. c #40D430",
"~. c #58C440",
"^. c #48CC40",
"/. c #84A470",
"(. c #20E418",
"). c #9C9484",
"_. c #68B458",
"`. c #9C9470",
"'. c #10EC08",
"]. c #78A460",
"[. c #60B448",
"{. c #40C430",
"}. c #8C9470",
"|. c #948C78",
" X c #68A458",
".X c #9C8470",
"XX c #50B438",
"oX c #10DC08",
"OX c #30C420",
"+X c #60A448",
"@X c #50AC48",
"#X c #948460",
"$X c #8C8470",
"%X c #40B430",
"&X c #689458",
"*X c #848460",
"=X c #8C7868",
"-X c #609448",
";X c #30B420",
":X c #20BC18",
">X c #40A430",
",X c #489C38",
"<X c #688458",
"1X c #847060",
"2X c #10BC08",
"3X c #608448",
"4X c #20AC18",
"5X c #488C38",
"6X c #846850",
"7X c #309C20",
"8X c #786858",
"9X c #508440",
"0X c #786848",
"qX c #10AC08",
"wX c #607048",
"eX c #686850",
"rX c #507840",
"tX c #408430",
"yX c #785848",
"uX c #308420",
"iX c #685850",
"pX c #208C10",
"aX c #109408",
"sX c #685838",
"dX c #486838",
"fX c #307820",
"gX c #387030",
"hX c #705040",
"jX c #605048",
"kX c #207810",
"lX c #108408",
"zX c #306820",
"xX c #485838",
"cX c #604838",
"vX c #504840",
"bX c #584030",
"nX c #484830",
"mX c #206010",
"MX c #106810",
"NX c #305028",
"BX c #106800",
"VX c #483830",
"CX c #FC480C",
"ZX c #FC0818",
"AX c #D81028",
"SX c #FC0000",
"DX c #0000FC",
"FX c #0000FC",
"GX c #0000FC",
"HX c #0000FC",
"JX c #0000FC",
"KX c #0000FC",
"LX c #0000FC",
"PX c #0000FC",
"IX c #0000FC",
"UX c black",
/* pixels */
"G.S {.L.!.U NXfXQ.R 7XzXkX(.W W Q E pX'.2XK.Q Q aXaXlXY.qXQ aXMXQ Q pXK.:XW P P W J n.Q Q E 2XY.Y.Q aXqXQ W W b n.mXE mX7XuXT 7X",
"{.K Q.V.Q.tXNXT P 4X;XR kXpXQ W W W MXpXW qXBXQ BXMXQ Y.Y.E Q aXW Q P L.K.H W W  .NXV.Q Q 4X'.Y.Y.MXBX2XQ Q Q uXV.H W uX;X .NXV.",
"S rXdXS L.gX .uXR OX7XR H H W W W Q Q Q Q E qXQ Q Q MXoXaXE P W 2XMXR 7XK.:XW W NX .;XQ Q aXaXlXY.qXQ aXMXQ Q pXK.:XW P P W J n.",
",XtXNXU !.fXfX;XT ;XzXW mX7XE W W Q Q Q Q BX'.qXQ Q pXY.lXE aXQ pXH W R 4X:XmX;XT NXT BXQ BXMXQ Y.Y.E Q aXW Q P L.K.H W W  .NXV.",
"{.>XU NX>XzXQ.;XzXH R R R :XpXE mXW Q Q W '.R.R.Q Q lXY.qXW lXQ W zXmXW E H E (.7XT NXqXQ Q Q MXoXaXE P W 2XMXR 7XK.:XW W NX .;X",
"G.%XU  .dXfXV.uXT R R W W pXQ.K.Q.2XQ Q ;XY.BX'.Q Q '.oXaXW W Q W pXmXW W E H P V.7X .'.qXQ Q pXY.lXE aXQ pXH W R 4X:XmX;XT NXT ",
"%XS S U >XS V.zXW NXT P E W 4XK.(.qXQ Q '.aXQ qXBXW Y.Y.qXW Q W qX:XW W W E :XE L.uXR R.R.Q Q lXY.qXW lXQ W zXmXW E H E (.7XT NX",
"K !.G.uX7XuXOXNXT uXT (.:XE 4XK.K.4XQ MX2XQ Q Q Q Q oXK.OX@XK E :X:XW Q W W B NXT R OXBX'.Q Q '.oXaXW W Q W pXmXW W E H P V.7X .",
"G.G.L.U ;XuX7X;XuX(.P K.K.mXmX4XK.4XQ Q W Q Q Q BXBXMXK.b.a.p.W MX4XQ W mXQ uX,XNXT L.Q qXBXW Y.Y.qXW Q W qX:XW W W E :XE L.uXR ",
"G.Q.%X .uXOX7XfXuXOXfX7X;XNXQ W :XP mXW Q Q Q BXqXoXW qXb.v.R W Q mXQ mX:XW kX;X .R uXQ Q Q Q oXK.OX@XK E :X:XW Q W W B NXT R OX",
"5XL.{.NXfXQ.NXNXT R W NXNXNXW W W W oXqXQ Q Q R.lXR.aXW K.gXQ Q W pXQ :XpXH ;X7XNXT NXQ Q BXBXMXK.b.a.p.W MX4XQ W mXQ uX,XNXT L.",
"U G.V.U zXOXNXT T NXNXW E H P :XMXQ '.lXQ Q Q '.lXR.2XMX2XQ Q Q qX(.W pX;X;X(.H W R R Q BXqXoXW qXb.v.R W Q mXQ mX:XW kX;X .R uX",
"xXG.V.K zXQ.;XOXuXNX .W H pX4XK.MXW 2XpXW Q Q qX2XL.{.BXoXQ Q W :XK.MXW :XkXP P W Z ;XQ R.lXR.aXW K.gXQ Q W pXQ :XpXH ;X7XNXT NX",
"U >X{.9XK 7XuX;XL.zXNXW H mXmX:XpXQ pX'.qXlXQ qX4XzXE aXlXQ 2X7X(.(.W W :XkXW W b p.L.Q '.lXR.2XMX2XQ Q Q qX(.W pX;X;X(.H W R R ",
"U U U K zXzXzX>XV.(.W W H mXW W pXW W Y.(.4XQ qXqXQ Q BXMXQ K.7X(.pXQ 4XK.uXW W F.c.OXQ qX2XL.{.BXoXQ Q W :XK.MXW :XkXP P W Z ;X",
"xXU U U fXuXuXV.L.V.T P :X4XW mX:XW MXaX4XP Q 2X2XQ Q Q Q E K.MXqX(.Q :XK.7XW uXuX7XfXQ qX4XzXE aXlXQ 2X7X(.(.W W :XkXW W b p.L.",
">X5XS %XNXNXfXQ.V.V.zX4X:X(.W >X4XMXqXMXfXR Q R.Y.oXMXQ Q E qXW 2XK.MXpXK.4XW zXR W NXQ qXqXQ Q BXMXQ K.7X(.pXQ 4XK.uXW W F.c.OX",
"b.%X>XV.uX .zXuXQ.(.uX4X(.(.mXpXW MXY.MXE W Q '.R.R.lXQ Q 2X4XQ MXK.pXMXK.mXH 7X .NX .Q 2X2XQ Q Q Q E K.MXqX(.Q :XK.7XW uXuX7XfX",
"%XtXK L.Q.NXfX7XuX;XOXK.K.uX:X:XQ MXY.E mXMXBX'.lX2X2XQ BXoXMXQ MXK.:XW :XE E (.7X7XT Q R.Y.oXMXQ Q E qXW 2XK.MXpXK.4XW zXR W NX",
">XK K {.Q.zXuXuXzXR (.K.{.zX(.K.MXMXqXuX4XY.2XoXQ :XR.Q E W W W MX4X(.4XH 4XW ;X(.fXT Q '.R.R.lXQ Q 2X4XQ MXK.pXMXK.mXH 7X .NX .",
"5XU >X>XL.fX7X;XR R (.;X^.P pXK.lXW 2XlXoXY.aXV.Q.R.2XQ E aXQ Q qX(.H E H K.H P zX .NXBX'.lX2X2XQ BXoXMXQ MXK.:XW :XE E (.7X7XT ",
"rXJ 5Xm Q.gXuXQ.R R 4XuXQ.kXpXK.mXqXqXmXlX'.W L.V.2XqXQ W oXW Q kXK.{.W mXK.OXE W T  .2XoXQ :XR.Q E W W W MX4X(.4XH 4XW ;X(.fXT ",
"9XJ U S Q.K fXOX .NXP fXOXE (.pXpXpXQ Q Q lXQ W 2X>X(.qXQ MXqXW OXK.H W W :XK.H NXuXzXaXV.Q.R.2XQ E aXQ Q qX(.H E H K.H P zX .NX",
"-XU U ,XL.7XuX%XT NXNXH V.R mXW pXMXQ Q Q Q 7XW W S 4XR.Q MX2XW K.pXR mXmXmXK.;XT OXOXW L.V.2XqXQ W oXW Q kXK.{.W mXK.OXE W T  .",
"m U U 5XL.OX>X{.OXfX .H (.R W Q pXMXW MXQ Q p.U Q W pXY.BXQ 2XMXpXW E >X:XW OX4X7XQ.L.Q W 2X>X(.qXQ MXqXW OXK.H W W :XK.H NXuXzX",
"G.G.U K Q.V.G.S V.L.R 4XK.E mXmX:XpX2XoXQ Q T W Q W {.Y.oXQ pXMX2XQ W mX(.mX;XpX7XV.L.7XW W S 4XR.Q MX2XW K.pXR mXmXmXK.;XT OXOX",
"5XG.tXNXfXQ.L.R uX7X .(.K.H :X4XmXE K.K.Q Q Q W MXQ MXY.'.Q gXW pX:X4XQ :X4XkXmXm %XzXp.U Q W pXY.BXQ 2XMXpXW E >X:XW OX4X7XQ.L.",
"dX!.K  .NXfXuXW >XOXNX4XOXmXH :XmXW 2XpXQ Q Q BXR.BXQ qX2XQ 4XQ W K.(.E 4X(.E E gXNXR T W Q W {.Y.oXQ pXMX2XQ W mX(.mX;XpX7XV.L.",
",X!.{.U uXtX5XNXOX(. .NX5XR W 4XmXQ W mXW Q Q BXR.R.Q Q W aX2XQ Q (.K.H H 4XW zXOX .R Q W MXQ MXY.'.Q gXW pX:X4XQ :X4XkXmXm %XzX",
"!.%XV.S Q.Q.K  .uXOXNXNX~.NXW pXE W W MXMX2XQ XXY.oXQ Q Q Y.qXE W 2X4XzXzXR W (.(.zXuXQ BXR.BXQ qX2XQ 4XQ W K.(.E 4X(.E E gXNXR ",
",XK Q.>XS {.NXNXT zX .R Q.zXW 4XkXE P Q W Y.Q uXR.BXQ Q Q aXoXMX2X:XR W T W kX7XuXuX7XQ BXR.R.Q Q W aX2XQ Q (.K.H H 4XW zXOX .R ",
">XNX%X!.zXS gX .T zXNXNXOXH W (.K.;XfXQ BXY.MXQ R.lXQ E Q W 2XMXqXK.MXW W E OXH W uXOXQ XXY.oXQ Q Q Y.qXE W 2X4XzXzXR W (.(.zXuX",
"Q.NXdX%XfXfX7XuXuXzXuXOX:X:XW (.K.;XW Q W qXR.Q BXBXpX2XQ Q oXMXMXK.:XE W E K.H W zX;XQ uXR.BXQ Q Q aXoXMX2X:XR W T W kX7XuXuX7X",
"%XU NX%X5X!.Q.OX7X .uXV.7X(.4XK.K.7XlXMXR >XqXQ Q 2Xn.'.Q Q 2XE Q {.K.4XE W H P W fXT MXQ R.lXQ E Q W 2XMXqXK.MXW W E OXH W uXOX",
"%XK U {.,XG.7XOXT NX4X(.R kX(.(.!.T (.MXmXQ.Q BXBX:Xp.V.lXQ W W pXx mX(.kXE R W uX;XNXR.Q BXBXpX2XQ Q oXMXMXK.:XE W E K.H W zX;X",
"G.5XtX%XuX7XuX{.NXNXNX4XmXmX4XkXmX:XK.MXlXoX>XK.aXdXh V.Y.Q Q W pXR E K.K.(.mXE (.(.zXqXQ Q 2Xn.'.Q Q 2XE Q {.K.4XE W H P W fXT ",
"G.G.tX>XK NXOXuX .NX .P W W W W mXK.K.MX2XqX'.R.lXzXA.oXY.BXQ W MXQ uX;XK.K.E :X(.(.7XQ BXBX:Xp.V.lXQ W W pXx mX(.kXE R W uX;XNX",
"%XG.>X%XS uXV.{.NXR zXNXT mXW Q pXK.pXR qXlX2XK.>XpX'.'.'.W Q W MXQ mX4XK.kXW 4XK.uXW >XK.aXdXh V.Y.Q Q W pXR E K.K.(.mXE (.(.zX",
"dXK G.b.S {.V.L.W P Q.>XOXOXW Q mXE E H W Q MX{.@XmXoXlXBXQ Q Q pX2XmXmX(.mXR P ;XzXU '.R.lXzXA.oXY.BXQ W MXQ uX;XK.K.E :X(.(.7X",
"5XNXK {.gX%XV.V.uXT uXuXV.(.Q W kXW zX;XQ Q MXW W Q qXBXE BXaXQ 4X2XW R OX(.mXR R 4XT 2XK.>XpX'.'.'.W Q W MXQ mX4XK.kXW 4XK.uXW ",
"G.U U U NXNXuXOXOXuX .NXV.4XW E pXR {.:XQ Q lXQ Q W Q W W E oXpXqXlXQ W OXK.E :XP ;XuXMX{.@XmXoXlXBXQ Q Q pX2XmXmX(.mXR P ;XzXU ",
"G.K K U NXzXNXNX;X;XR W OXH R E E E (.4XQ W qXQ MXqXQ zX5XQ Q.K.(.W Q E (.4XW ;XH R T MXW W Q qXBXE BXaXQ 4X2XW R OX(.mXR R 4XT ",
"{.+XG.{.%X7XNXNXT OX7X;XuX7X4XP W MX(.MXQ qXaXlX2XqXQ W E Q :XK.qXQ W 4XkXmX(.Q.uXP ;XlXQ Q W Q W W E oXpXqXlXQ W OXK.E :XP ;XuX",
"5XxXS ,XG.uX7X7XzX7XOXK.K.;XOXXXfXW kXQ Q 2XBXR.2XQ MXQ Q W MXoXoXR MXK.W mXK.uXuXV.V.qXQ MXqXQ zX5XQ Q.K.(.W Q E (.4XW ;XH R T ",
"5X>XXXB !.uXQ.L.zXzXT K.K.OX%X{.K.7XzXQ MX2XMXR.BXlX'.Q MX2XqXW qX5XW (.pXW 7XzXG.V.7XaXlX2XqXQ W E Q :XK.qXQ W 4XkXmX(.Q.uXP ;X",
"5XG.b.{.%X .7XQ.NX .NX(.K.K.H 4XK.(.T mX:XqXW BXMX'.R.Q MXoX2XW :Xx  .pX(.9XW uXQ.L.uXBXR.2XQ MXQ Q W MXoXoXR MXK.W mXK.uXuXV.V.",
",X%XS %X{.NXuX;XNXNX .uXH :XW (.OXmXfXT pXpXMXQ Q R.R.Q Q Q W W (.OXgXW :XkXE 7XG.S NXMXR.BXlX'.Q MX2XqXW qX5XW (.pXW 7XzXG.V.7X",
"G.%XU %X{.K K XX;XNXR T W mXH 7X[.%X(.Q MX'.2XQ MXR.V.(.BXQ W W lX(.Q.MXpXK.mXR OX;XT W BXMX'.R.Q MXoX2XW :Xx  .pX(.9XW uXQ.L.uX",
">XG.K S S >XdX~.OXNXT T W mXK.L.zX:XK.MXMXK.R.Q Q 2Xp.l.{.W BXlXQ K.K.W pXK.pXW OXV.uXMXQ Q R.R.Q Q Q W W (.OXgXW :XkXE 7XG.S NX",
",X5X{.tX>XfXS tX5XNXK tXW E K.K.MXMX(.MX2XK.R.lXQ qXp.h p.qXBXQ W '.qXW (.(.E dXc.p.(.2XQ MXR.V.(.BXQ W W lX(.Q.MXpXK.mXR OX;XT ",
"G.dX{.>Xb.uX7XNXK B [.S W W H 4XE W mXW 2XK.R.W Q W p.v.V.2XQ R zX:XP W :X:XzXC.p.c.T R.Q Q 2Xp.l.{.W BXlXQ K.K.W pXK.pXW OXV.uX",
"G.tX{.S L.%XuX;X~.@XU 7XmXW W W W Q Q Q MX'.qXMXBXQ U.uXR.BXQ 5X5XpX:XW W K.V.uXT 7XNXR.lXQ qXp.h p.qXBXQ W '.qXW (.(.E dXc.p.(.",
"b.S >X{.G.Q.fXV.V.zX .(.H W W R W Q W Q Q W Q aXoX'.lXBXR.lXlXW NXOXK.W Q :X(.H NXT R R.W Q W p.v.V.2XQ R zX:XP W :X:XzXC.p.c.T ",
"J.rX>XV.J.!.uXQ.L.R R H (.fXOX:XmXQ E MXQ Q Q Q qXR.lXMXY.oX2XQ dXl.K.pXW 4XK.4XW NXU qXMXBXQ U.uXR.BXQ 5X5XpX:XW W K.V.uXT 7XNX",
"B xXK >XU.5X;XOXuXuX4XH K.H (.K.pXQ W MXW mXQ Q MXoXBXQ lX2X'.Q dXp.7X(.:XH K.uXNXdX5XQ aXoX'.lXBXR.lXlXW NXOXK.W Q :X(.H NXT R ",
"dXU U dXxX7XQ.OXNXOXV.S uXmX:XK.OXmXmXW MX2XQ Q kXJ.fXQ W W oXMXR Q.E :XK.kX(.T  .uXOXQ Q qXR.lXMXY.oX2XQ dXl.K.pXW 4XK.4XW NXU ",
"m 5XK D  .NX>XK  .zXG.uXW R :XK.H (.K.mXQ 2XMXE mXuX5XlXBXQ MXW W (.mXmXOX{.(.W 5Xn.uXQ Q MXoXBXQ lX2X'.Q dXp.7X(.:XH K.uXNXdX5X",
"J.XX%XL.U  .%XD T NXL.4XW W H (.W :XK.2XQ MX'.aXMXQ W Y.lXlXH R W pXmXE Q.c.4XT ^.n.R Q Q kXJ.fXQ W W oXMXR Q.E :XK.kX(.T  .uXOX",
"tXG.A.L.{.NXOXV.uXNXV.(.W W mX(.Q pXK.K.Q E 2XaXQ Q Q R.oX'.pXkXQ pXpXmXL.U.W >Xb.U.R MXE mXuX5XlXBXQ MXW W (.mXmXOX{.(.W 5Xn.uX",
"xXG.G.tXzXzXuXQ.uXNX(.V.uX4XE :XQ MXK.K.MXMX2XQ Q Q Q BXY.2XaXK.MXpX4XmX;XdXW ;Xp.p.uX'.aXMXQ W Y.lXlXH R W pXmXE Q.c.4XT ^.n.R ",
"tXG.b.tX .uX7XNX;XT 7X7X7XOXzXQ.W W 2XK.oXlXaXQ MXoXMXQ (.:XqXK.MXW mXmX:XW W {.c.^.V.2XaXQ Q Q R.oX'.pXkXQ pXpXmXL.U.W >Xb.U.R ",
"{.>Xb.S NXuXOXW OXP 7XuX{.zXH :X4XQ lXK.K.qXQ Q lXlXQ Q mX:XoXK.mXQ W (.(.W W v.%XT Q.2XQ Q Q Q BXY.2XaXK.MXpX4XmX;XdXW ;Xp.p.uX",
">X5Xn.J D zX7XNX7XR 7X7X@XNXmX(.(.W W lX2X;XQ BX2XQ Q Q W qXL.2XkXQ qXK.(.W R A.(.W T aXQ MXoXMXQ (.:XqXK.MXW mXmX:XW W {.c.^.V.",
"{.>Xn.xXQ.S U >XT uX7XP NXW Q :XK.kXW Q kXP Q R.'.Q Q E Q zX5XMXqXQ pX4X(.4XuX,X%X&XdXQ Q lXlXQ Q mX:XoXK.mXQ W (.(.W W v.%XT Q."
};
